<svg width="25" height="24" viewBox="0 0 25 24" fill="none" xmlns="http://www.w3.org/2000/svg">
<path d="M13.5 1C14.0523 1 14.5 1.44772 14.5 2V5C14.5 6.65685 15.8431 8 17.5 8H20.5C21.0523 8 21.5 8.44772 21.5 9V20C21.5 21.6569 20.1569 23 18.5 23H6.5C4.84315 23 3.5 21.6569 3.5 20V4C3.5 2.34315 4.84315 1 6.5 1H13.5Z" fill="#737279"/>
<path d="M17.4774 1.17659C16.9681 0.963013 16.5 1.44679 16.5 1.99907V4.99907C16.5 5.55136 16.9477 5.99907 17.5 5.99907H20.5C21.0523 5.99907 21.5361 5.53096 21.3225 5.02165C21.23 4.80114 21.0972 4.59624 20.9142 4.41329L18.0858 1.58486C17.9028 1.40191 17.6979 1.26906 17.4774 1.17659Z" fill="#737279"/>
</svg>
